<svg width="50" height="50" viewBox="0 0 50 50" fill="none" xmlns="http://www.w3.org/2000/svg">
<g clip-path="url(#clip0)">
<path d="M31.4976 8.00362L34.2583 5.24292L39.1384 10.1231L47.2393 2.02179L50 4.78249L39.1384 15.6441L31.4976 8.00362ZM47.01 13.2938C48.9449 16.8861 49.9722 20.9229 49.9722 25.1179C49.9722 31.7921 47.3732 38.0665 42.654 42.786C37.9349 47.5052 31.6601 50.0702 24.9863 50.0702C18.3121 50.0702 12.0377 47.5052 7.31812 42.786C2.59895 38.0665 0 31.7921 0 25.1179C0 18.4441 2.59895 12.1693 7.31812 7.4501C12.0377 2.73094 18.3121 0.0976562 24.9863 0.0976562C27.6287 0.0976562 30.2082 0.540924 32.6538 1.32599L29.464 4.51622C28.0201 4.20265 26.5224 4.03595 24.9863 4.03595C13.3614 4.03595 3.90396 13.4933 3.90396 25.1179C3.90396 30.4359 5.88455 35.3001 9.14497 39.0129C10.2795 33.9367 13.7974 29.7508 18.4589 27.6951C16.5127 25.9205 15.2893 23.3658 15.2893 20.5307C15.2893 15.184 19.6392 10.8337 24.9863 10.8337C30.3329 10.8337 34.6828 15.1836 34.6828 20.5307C34.6828 23.3658 33.4599 25.9205 31.5136 27.6951C36.1748 29.7508 39.6931 33.9367 40.8272 39.0129C44.088 35.2997 46.0682 30.4359 46.0682 25.1179C46.0682 21.9372 45.3587 18.919 44.0918 16.2121L47.01 13.2938ZM24.9863 26.3233C28.1803 26.3233 30.7789 23.7247 30.7789 20.5307C30.7789 17.3363 28.1803 14.7377 24.9863 14.7377C21.7918 14.7377 19.1933 17.3363 19.1933 20.5307C19.1933 23.7247 21.7918 26.3233 24.9863 26.3233V26.3233ZM24.9863 46.2002C29.583 46.2002 33.8402 44.7201 37.3085 42.2131C37.1269 35.5732 31.6692 30.2273 24.9863 30.2273C18.3033 30.2273 12.8452 35.5732 12.664 42.2131C16.1324 44.7201 20.3892 46.2002 24.9863 46.2002Z" fill="#F2F2F2"/>
</g>
<defs>
<clipPath id="clip0">
<rect width="50" height="50" fill="white"/>
</clipPath>
</defs>
</svg>
