<svg width="50" height="50" viewBox="0 0 50 50" fill="none" xmlns="http://www.w3.org/2000/svg">
<path d="M45.6356 1.63748H21.6263C21.0279 1.63748 20.5428 2.12254 20.5428 2.72098V11.1634L21.7445 10.4173C22.0503 10.2274 22.3768 10.0993 22.7097 10.0289V3.80447H44.552V19.431H22.7098V16.9027L20.5428 18.2482V20.5146C20.5428 21.113 21.0279 21.5981 21.6263 21.5981H45.6356C46.2339 21.5981 46.7191 21.113 46.7191 20.5146V2.72098C46.7191 2.12254 46.2339 1.63748 45.6356 1.63748Z" fill="#F2F2F2"/>
<path d="M29.8829 7.65193C29.5978 7.29041 29.0738 7.22859 28.7123 7.51346L24.9802 10.4561C25.3366 10.689 25.6492 11.001 25.8885 11.3865C25.9564 11.4956 26.0153 11.6078 26.0676 11.7216L29.7445 8.82244C30.106 8.53748 30.1679 8.01336 29.8829 7.65193Z" fill="#F2F2F2"/>
<path d="M11.8686 6.23729C13.591 6.23729 14.9873 4.84103 14.9873 3.11865C14.9873 1.39627 13.591 0 11.8686 0C10.1463 0 8.75 1.39627 8.75 3.11865C8.75 4.84103 10.1463 6.23729 11.8686 6.23729Z" fill="#F2F2F2"/>
<path d="M24.6103 12.1804C24.172 11.4745 23.2444 11.2575 22.5383 11.6958L19.4908 13.5879C19.4781 11.0606 19.4849 12.4018 19.4767 10.7743C19.4669 8.82068 17.8695 7.23123 15.9158 7.23123H14.4354C13.1707 10.5113 13.5781 9.29373 12.5046 12.0779L12.9561 10.112C12.9873 9.96472 12.9647 9.81121 12.8921 9.67937L12.2804 8.56678L12.8232 7.57957C12.9042 7.43231 12.7975 7.25184 12.6294 7.25184H11.1381C10.9701 7.25184 10.8632 7.43231 10.9442 7.57957L11.4882 8.56883L10.8753 9.68347C10.8042 9.81287 10.781 9.96326 10.8097 10.108L11.2008 12.0779C10.9899 11.5311 9.53243 7.75115 9.33194 7.23123H7.82159C5.86798 7.23123 4.27053 8.82058 4.26066 10.7743L4.2051 21.829C4.201 22.66 4.87121 23.3371 5.70226 23.3413C5.7049 23.3413 5.70734 23.3413 5.70998 23.3413C6.53742 23.3413 7.21036 22.6725 7.21447 21.8441L7.27003 10.7894C7.27003 10.7877 7.27003 10.7859 7.27003 10.7843C7.27238 10.6202 7.40665 10.4887 7.57072 10.49C7.73478 10.4912 7.867 10.6246 7.867 10.7886L7.86769 26.4508C9.24522 26.3922 10.5216 26.8891 11.4791 27.7617V21.6515H12.2587V28.6606C12.8078 29.468 13.1292 30.4421 13.1292 31.4901C13.1292 32.4449 12.8624 33.3385 12.3998 34.1005C12.875 34.1028 13.3365 34.1658 13.7767 34.2822C14.37 33.7675 15.0838 33.3886 15.8701 33.1948C15.8701 5.91532 15.8374 22.782 15.8374 10.7907C15.8374 10.617 15.9779 10.4761 16.1517 10.4759C16.3254 10.4755 16.4665 10.6157 16.4673 10.7894C16.4726 11.8448 16.4892 15.1439 16.4949 16.2924C16.4977 16.8373 16.7947 17.3381 17.2716 17.6017C17.7476 17.8648 18.3297 17.8511 18.7934 17.5632L24.1258 14.2524C24.8316 13.8142 25.0487 12.8864 24.6103 12.1804Z" fill="#F2F2F2"/>
<path d="M41.9161 34.8275C43.7392 34.8275 45.2171 33.3495 45.2171 31.5264C45.2171 29.7033 43.7392 28.2253 41.9161 28.2253C40.0929 28.2253 38.615 29.7033 38.615 31.5264C38.615 33.3495 40.0929 34.8275 41.9161 34.8275Z" fill="#F2F2F2"/>
<path d="M49.9471 39.6299C49.9366 37.5619 48.2458 35.8795 46.1777 35.8795C45.2854 35.8795 38.6989 35.8795 37.8984 35.8795C38.2535 36.5697 38.4554 37.3511 38.4554 38.1793C38.4554 39.0587 38.2205 39.9775 37.723 40.7947C39.5691 40.8694 41.1866 41.8602 42.132 43.3237H46.0948V39.6685C46.0948 39.4886 46.2374 39.3411 46.4172 39.335C46.597 39.3288 46.7494 39.4663 46.7615 39.6457C46.7615 39.6457 46.7615 39.6458 46.7615 39.6459L46.7801 43.3237H49.9657L49.9471 39.6299Z" fill="#F2F2F2"/>
<path d="M28.3661 38.1792C28.3661 37.3365 28.5749 36.5422 28.9417 35.8433C26.7923 35.8433 24.2686 35.8433 21.5914 35.8433C21.9304 36.5209 22.1223 37.2843 22.1223 38.0922C22.1223 39.0415 21.8557 39.9405 21.3929 40.7027C22.9123 40.7099 24.314 41.3411 25.3268 42.3889C26.3087 41.4297 27.647 40.8348 29.1194 40.8269C28.6082 40.0015 28.3661 39.0747 28.3661 38.1792Z" fill="#F2F2F2"/>
<path d="M25.8612 28.1889C24.0381 28.1889 22.56 29.6666 22.56 31.49C22.56 33.3091 24.0353 34.791 25.8612 34.791C27.6696 34.791 29.1622 33.3296 29.1622 31.49C29.1622 29.6687 27.6871 28.1889 25.8612 28.1889Z" fill="#F2F2F2"/>
<path d="M12.0329 38.0922C12.0329 37.2864 12.2239 36.5245 12.5613 35.8481C12.419 35.8411 13.0176 35.8433 3.82256 35.8433C1.76515 35.8433 0.063684 37.5169 0.0532348 39.5937L0.0344849 43.3237C1.49024 43.3237 1.78311 43.3237 3.22012 43.3237L3.23878 39.6098C3.23975 39.4258 3.38926 39.2776 3.57305 39.2781C3.75684 39.2786 3.90547 39.4277 3.90547 39.6115V43.3237H8.37099C9.3334 41.7853 10.9882 40.8193 12.7892 40.745C12.3004 39.9577 12.0329 39.0492 12.0329 38.0922Z" fill="#F2F2F2"/>
<path d="M8.08452 28.1889C6.26147 28.1889 4.78345 29.6668 4.78345 31.49C4.78345 33.3048 6.25278 34.791 8.08452 34.791C9.89467 34.791 11.3857 33.3247 11.3857 31.49C11.3857 29.6667 9.90766 28.1889 8.08452 28.1889Z" fill="#F2F2F2"/>
<path d="M41.2629 46.2701C41.2527 44.202 39.5617 42.5195 37.4937 42.5195C37.2743 42.5195 29.3913 42.5195 29.1434 42.5195C27.0754 42.5195 25.2761 44.2019 25.2657 46.2699L25.2388 46.1829C25.2286 44.1231 23.5454 42.4325 21.4696 42.4325C19.0727 42.4325 15.6302 42.4325 13.1193 42.4325C11.0514 42.4325 9.25204 44.1148 9.24159 46.1829L9.22284 49.9999H12.4085L12.4271 46.1989C12.4279 46.0405 12.5567 45.9128 12.715 45.9132C12.8733 45.9136 13.0013 46.0421 13.0013 46.2004V50C14.8686 50 19.6891 50 21.4381 50V46.2004C21.4381 46.0309 21.5753 45.8934 21.7448 45.8929C21.9142 45.8925 22.0523 46.0293 22.0532 46.1988L22.0718 49.9999C22.7231 49.9999 27.7591 49.9999 28.4326 49.9999L28.4512 46.2859C28.4512 46.2859 28.4512 46.2858 28.4512 46.2857C28.4521 46.1274 28.5809 45.9998 28.7392 46.0002C28.8975 46.0006 29.0254 46.1291 29.0254 46.2874V49.9999C30.8927 49.9999 35.7132 49.9999 37.4621 49.9999V46.2874C37.4621 46.1179 37.5993 45.9804 37.7689 45.9799C37.9383 45.9795 38.0764 46.1163 38.0773 46.2858L38.0959 49.9998H41.2816L41.2629 46.2701Z" fill="#F2F2F2"/>
<path d="M17.181 41.419C19.0254 41.419 20.5207 39.9238 20.5207 38.0793C20.5207 36.2349 19.0254 34.7397 17.181 34.7397C15.3366 34.7397 13.8414 36.2349 13.8414 38.0793C13.8414 39.9238 15.3366 41.419 17.181 41.419Z" fill="#F2F2F2"/>
<path d="M33.4052 41.5057C35.2496 41.5057 36.7448 40.0105 36.7448 38.1661C36.7448 36.3216 35.2496 34.8264 33.4052 34.8264C31.5608 34.8264 30.0656 36.3216 30.0656 38.1661C30.0656 40.0105 31.5608 41.5057 33.4052 41.5057Z" fill="#F2F2F2"/>
</svg>
