<svg width="50" height="50" viewBox="0 0 50 50" fill="none" xmlns="http://www.w3.org/2000/svg">
<g clip-path="url(#clip0)">
<path d="M25 13.1371L7.16776 27.8379C7.16776 27.8586 7.16255 27.8892 7.15212 27.9308C7.14191 27.972 7.13647 28.002 7.13647 28.0233V42.9094C7.13647 43.4469 7.33298 43.9127 7.72588 44.3049C8.11866 44.6974 8.5838 44.8949 9.12138 44.8949H21.03V32.9856H28.9702V44.8953H40.8786C41.4161 44.8953 41.8819 44.6983 42.2741 44.3049C42.667 43.9131 42.8642 43.447 42.8642 42.9094V28.0233C42.8642 27.9408 42.8529 27.8784 42.8329 27.8379L25 13.1371Z" fill="#F2F2F2"/>
<path d="M49.655 24.4883L42.8635 18.844V6.19054C42.8635 5.90127 42.7706 5.66338 42.5839 5.4772C42.3988 5.29123 42.1609 5.19825 41.871 5.19825H35.9166C35.627 5.19825 35.3892 5.29123 35.203 5.4772C35.0171 5.66338 34.9242 5.90138 34.9242 6.19054V12.238L27.3572 5.91115C26.6963 5.37357 25.9105 5.10483 25.0007 5.10483C24.0909 5.10483 23.3052 5.37357 22.6437 5.91115L0.344559 24.4883C0.137845 24.6535 0.0245488 24.8757 0.00347553 25.1549C-0.0174892 25.4338 0.0547467 25.6775 0.2204 25.8841L2.14318 28.1791C2.30883 28.3651 2.52565 28.4788 2.79449 28.5204C3.0427 28.5413 3.29091 28.4687 3.53912 28.3034L25 10.4082L46.4611 28.3033C46.6269 28.4475 46.8436 28.5195 47.1124 28.5195H47.2056C47.474 28.4787 47.6904 28.3642 47.8569 28.1787L49.7799 25.884C49.9453 25.6769 50.0177 25.4337 49.9962 25.1544C49.975 24.876 49.8613 24.6538 49.655 24.4883Z" fill="#F2F2F2"/>
</g>
<defs>
<clipPath id="clip0">
<rect width="50" height="49.9999" fill="white"/>
</clipPath>
</defs>
</svg>
