<svg width="50" height="73" viewBox="0 0 50 73" fill="none" xmlns="http://www.w3.org/2000/svg">
<path d="M49.0308 14.8508C49.0275 14.8508 49.0243 14.8508 49.0211 14.8508H45.7356V13.2171C45.7533 12.5705 45.4655 11.9894 45.0378 11.8088C42.7568 10.9402 40.408 10.5046 38.05 10.5131C34.1733 10.5131 28.8913 11.7806 24.9855 17.5549C21.1087 11.7243 15.7879 10.5131 11.9209 10.5131C9.5629 10.5046 7.21409 10.9402 4.93313 11.8088C4.50548 11.9894 4.21763 12.5705 4.23532 13.2171V14.8368H0.96918C0.43395 14.8368 0 15.4673 0 16.2451V61.2281C0 62.0059 0.43395 62.6365 0.96918 62.6365C1.13564 62.6358 1.29919 62.5727 1.44408 62.4534C1.541 62.383 11.2328 54.6792 24.7626 59.6367H24.9079H24.9952C25.0724 59.6502 25.1505 59.6502 25.2278 59.6367C38.7963 54.637 48.4881 62.3266 48.5462 62.4534C48.8461 62.7049 49.2156 62.7049 49.5154 62.4534C49.8134 62.2034 49.9979 61.7423 50 61.2422V16.2592C50 15.4814 49.5662 14.8508 49.0308 14.8508ZM1.93836 58.9888V17.6676H4.2547V52.9892C4.24864 53.767 4.67763 54.4046 5.21286 54.4134C5.26519 54.4143 5.31753 54.409 5.36926 54.3976C7.37425 53.9527 9.3985 53.7173 11.4266 53.6934C14.236 53.6226 17.0337 54.2367 19.7034 55.5102C13.6745 54.4507 7.55924 55.6482 1.93836 58.9888ZM11.4266 50.8907C9.66382 50.8966 7.90306 51.0612 6.15429 51.3837V14.3297C8.04129 13.7189 9.96826 13.4071 11.9015 13.4002C15.5263 13.4002 20.5272 14.6114 23.9969 20.3012L24.026 55.3834C22.0101 53.468 18.0752 50.8907 11.4266 50.8907ZM25.9643 20.3012C29.434 14.6677 34.435 13.4002 38.0597 13.4002C39.9929 13.4085 41.9198 13.7201 43.8069 14.3297V51.3837C42.068 51.0582 40.3169 50.8888 38.5637 50.8767C31.9539 50.8767 28.0093 53.454 25.9643 55.3693V20.3012ZM48.0519 58.9888C42.4191 55.639 36.2897 54.4414 30.2481 55.5102C32.9304 54.2321 35.7414 53.6179 38.5637 53.6934C40.6045 53.7099 42.6419 53.9405 44.6598 54.3835C45.189 54.5002 45.6832 53.9714 45.7635 53.2024C45.7713 53.1272 45.775 53.0512 45.7744 52.9751V17.6676H48.0907L48.0519 58.9888Z" fill="#F2F2F2"/>
</svg>
