<svg width="50" height="50" viewBox="0 0 50 50" fill="none" xmlns="http://www.w3.org/2000/svg">
<path d="M50 27.8179C50 25.8009 48.3595 24.1597 46.3426 24.1597C45.3661 24.1597 44.4478 24.5405 43.7563 25.2315L40.3226 28.6653V0H8.53705L0 8.53705V50H40.3226V39.0105L48.9289 30.4042C49.6192 29.7139 50 28.7952 50 27.8179ZM30.2396 41.83L32.338 43.9284L29.4008 44.7856L30.2396 41.83ZM33.871 43.1798L32.996 42.3048L44.5096 30.7905L45.3853 31.6662L33.871 43.1798ZM31.8548 41.1645L30.9791 40.2887L42.4943 28.7743L43.37 29.6501L31.8548 41.1645ZM8.06452 2.75328V8.06452H2.75328L8.06452 2.75328ZM38.7097 48.3871H1.6129V9.67742H9.67742V1.6129H38.7097V30.2782L29.1201 39.867L27.0516 47.1506L34.2951 45.038L38.7097 40.6234V48.3871ZM47.7886 29.2638L46.5265 30.5258L43.6346 27.634L44.8967 26.3719C45.283 25.9856 45.7968 25.7726 46.3426 25.7726C47.4692 25.7726 48.3871 26.6905 48.3871 27.8179C48.3871 28.3644 48.1741 28.8783 47.7886 29.2638Z" fill="#F2F2F2"/>
<path d="M16.3385 33.3283L12.8678 37.1468C11.8444 36.1202 10.4307 35.4839 8.87099 35.4839C5.75899 35.4839 3.22583 38.017 3.22583 41.129C3.22583 44.241 5.75899 46.7742 8.87099 46.7742C11.983 46.7742 14.5162 44.241 14.5162 41.129C14.5162 40.167 14.2736 39.2613 13.8467 38.4679L17.5325 34.4136L16.3385 33.3283ZM12.9032 41.129C12.9032 43.3523 11.0942 45.1613 8.87099 45.1613C6.64774 45.1613 4.83873 43.3523 4.83873 41.129C4.83873 38.9058 6.64774 37.0968 8.87099 37.0968C10.0137 37.0968 11.0419 37.5799 11.7767 38.3466L8.74105 41.6862L6.89936 40.4588L6.0047 41.8008L9.00173 43.7992L12.6548 39.7807C12.8056 40.204 12.9032 40.6533 12.9032 41.129Z" fill="#F2F2F2"/>
<path d="M12.8678 22.6307C11.8444 21.6041 10.4307 20.9678 8.87099 20.9678C5.75899 20.9678 3.22583 23.5009 3.22583 26.6129C3.22583 29.7249 5.75899 32.2581 8.87099 32.2581C11.983 32.2581 14.5162 29.7249 14.5162 26.6129C14.5162 25.6509 14.2736 24.7452 13.8467 23.9518L17.5325 19.8975L16.3385 18.8122L12.8678 22.6307ZM12.9032 26.6129C12.9032 28.8362 11.0942 30.6452 8.87099 30.6452C6.64774 30.6452 4.83873 28.8362 4.83873 26.6129C4.83873 24.3897 6.64774 22.5807 8.87099 22.5807C10.0137 22.5807 11.0419 23.0638 11.7767 23.8305L8.74105 27.1701L6.89936 25.9427L6.0047 27.2847L9.00173 29.2831L12.6548 25.2646C12.8056 25.6879 12.9032 26.1372 12.9032 26.6129Z" fill="#F2F2F2"/>
<path d="M35.4839 25.8065H37.0968V27.4194H35.4839V25.8065Z" fill="#F2F2F2"/>
<path d="M17.7419 25.8065H33.871V27.4194H17.7419V25.8065Z" fill="#F2F2F2"/>
<path d="M17.7419 22.5807H37.0968V24.1936H17.7419V22.5807Z" fill="#F2F2F2"/>
<path d="M17.7419 29.0323H37.0968V30.6452H17.7419V29.0323Z" fill="#F2F2F2"/>
<path d="M17.7419 40.3226H26.6129V41.9355H17.7419V40.3226Z" fill="#F2F2F2"/>
<path d="M17.7419 43.5484H26.6129V45.1613H17.7419V43.5484Z" fill="#F2F2F2"/>
<path d="M17.7419 37.0968H26.6129V38.7097H17.7419V37.0968Z" fill="#F2F2F2"/>
<path d="M15.3226 17.7419H33.0645C35.2878 17.7419 37.0968 15.9329 37.0968 13.7097V7.25806C37.0968 5.0348 35.2878 3.2258 33.0645 3.2258H15.3226C13.0993 3.2258 11.2903 5.0348 11.2903 7.25806V13.7097C11.2903 15.9329 13.0993 17.7419 15.3226 17.7419ZM12.9032 7.25806C12.9032 5.92434 13.9889 4.8387 15.3226 4.8387H33.0645C34.3983 4.8387 35.4839 5.92434 35.4839 7.25806V13.7097C35.4839 15.0434 34.3983 16.129 33.0645 16.129H15.3226C13.9889 16.129 12.9032 15.0434 12.9032 13.7097V7.25806Z" fill="#F2F2F2"/>
<path d="M33.8709 8.06451H29.0322V12.9032H33.8709V8.06451ZM32.258 11.2903H30.6451V9.67742H32.258V11.2903Z" fill="#F2F2F2"/>
<path d="M26.6129 8.06451H21.7742V12.9032H26.6129V8.06451ZM25 11.2903H23.3871V9.67742H25V11.2903Z" fill="#F2F2F2"/>
<path d="M19.3548 8.06451H14.5161V12.9032H19.3548V8.06451ZM17.7419 11.2903H16.129V9.67742H17.7419V11.2903Z" fill="#F2F2F2"/>
</svg>
