<svg width="50" height="50" viewBox="0 0 50 50" fill="none" xmlns="http://www.w3.org/2000/svg">
<g clip-path="url(#clip0)">
<path d="M19.5538 14.949H30.4461C31.2583 14.949 31.9167 14.2905 31.9167 13.4784C31.9167 12.6662 31.2583 12.0078 30.4461 12.0078H19.5538C18.7416 12.0078 18.0832 12.6662 18.0832 13.4784C18.0832 14.2905 18.7416 14.949 19.5538 14.949Z" fill="#F2F2F2"/>
<path d="M15.8923 20.8506H22.0505C22.8627 20.8506 23.5211 20.1922 23.5211 19.38C23.5211 18.5679 22.8627 17.9094 22.0505 17.9094H15.8923C15.0801 17.9094 14.4217 18.5679 14.4217 19.38C14.4217 20.1922 15.08 20.8506 15.8923 20.8506Z" fill="#F2F2F2"/>
<path d="M33.5309 20.8506H34.5292C35.3414 20.8506 35.9998 20.1922 35.9998 19.38C35.9998 18.5679 35.3414 17.9094 34.5292 17.9094H33.5309C32.7187 17.9094 32.0603 18.5679 32.0603 19.38C32.0603 20.1922 32.7187 20.8506 33.5309 20.8506Z" fill="#F2F2F2"/>
<path d="M28.494 17.9094H27.4957C26.6835 17.9094 26.0251 18.5679 26.0251 19.38C26.0251 20.1922 26.6835 20.8506 27.4957 20.8506H28.494C29.3062 20.8506 29.9646 20.1922 29.9646 19.38C29.9646 18.5679 29.3062 17.9094 28.494 17.9094Z" fill="#F2F2F2"/>
<path d="M15.8923 26.8301H22.0505C22.8627 26.8301 23.5211 26.1717 23.5211 25.3595C23.5211 24.5474 22.8627 23.8889 22.0505 23.8889H15.8923C15.0801 23.8889 14.4217 24.5474 14.4217 25.3595C14.4217 26.1717 15.08 26.8301 15.8923 26.8301Z" fill="#F2F2F2"/>
<path d="M33.5309 26.8301H34.5292C35.3414 26.8301 35.9998 26.1717 35.9998 25.3595C35.9998 24.5474 35.3414 23.8889 34.5292 23.8889H33.5309C32.7187 23.8889 32.0603 24.5474 32.0603 25.3595C32.0603 26.1717 32.7187 26.8301 33.5309 26.8301Z" fill="#F2F2F2"/>
<path d="M28.494 23.8889H27.4957C26.6835 23.8889 26.0251 24.5474 26.0251 25.3595C26.0251 26.1717 26.6835 26.8301 27.4957 26.8301H28.494C29.3062 26.8301 29.9646 26.1717 29.9646 25.3595C29.9646 24.5474 29.3062 23.8889 28.494 23.8889Z" fill="#F2F2F2"/>
<path d="M17.9457 35.0121H17.5088C15.2138 35.0121 13.3467 36.8792 13.3467 39.1742V43.3815C13.3467 44.1937 14.0051 44.8521 14.8173 44.8521C15.6294 44.8521 16.2879 44.1937 16.2879 43.3815V42.3842H19.1667V43.3815C19.1667 44.1937 19.8251 44.8521 20.6373 44.8521C21.4494 44.8521 22.1079 44.1937 22.1079 43.3815V39.1742C22.1079 36.8792 20.2407 35.0121 17.9457 35.0121ZM16.2879 39.4431V39.1742C16.2879 38.501 16.8356 37.9533 17.5088 37.9533H17.9457C18.6189 37.9533 19.1667 38.501 19.1667 39.1742V39.4431H16.2879Z" fill="#F2F2F2"/>
<path d="M28.1888 31.9924H27.8404V31.644C27.8404 30.8318 27.182 30.1734 26.3698 30.1734C25.5576 30.1734 24.8992 30.8318 24.8992 31.644V31.9924H24.5508C23.7386 31.9924 23.0802 32.6509 23.0802 33.463C23.0802 34.2752 23.7386 34.9336 24.5508 34.9336H24.8992V35.282C24.8992 36.0942 25.5576 36.7526 26.3698 36.7526C27.182 36.7526 27.8404 36.0942 27.8404 35.282V34.9336H28.1888C29.001 34.9336 29.6594 34.2752 29.6594 33.463C29.6594 32.6509 29.0011 31.9924 28.1888 31.9924Z" fill="#F2F2F2"/>
<path d="M43.4314 37.9412V4.33038C43.4314 3.51822 42.7729 2.85979 41.9608 2.85979H33.1614V1.47057C33.1614 0.658416 32.5029 -1.52588e-05 31.6908 -1.52588e-05H18.3092C17.497 -1.52588e-05 16.8386 0.658416 16.8386 1.47057V2.85979H8.03919C7.22703 2.85979 6.5686 3.51822 6.5686 4.33038V48.5294C6.5686 49.3416 7.22703 50 8.03919 50H31.3725C31.7591 50 32.1398 49.8419 32.4123 49.5692L43.0006 38.981C43.2681 38.7135 43.4314 38.3376 43.4314 37.9412ZM19.7798 2.94116H30.2202V5.71891H19.7798V2.94116ZM9.50978 5.80096H16.8386V7.18949C16.8386 8.00165 17.497 8.66008 18.3092 8.66008H31.6908C32.5029 8.66008 33.1614 8.00165 33.1614 7.18949V5.80096H40.4902V36.4706H31.3725C30.5604 36.4706 29.9019 37.129 29.9019 37.9412V47.0588H9.50978V5.80096ZM32.8431 44.9791V39.4118H38.4105C35.4208 42.4015 35.8336 41.9886 32.8431 44.9791Z" fill="#F2F2F2"/>
</g>
<defs>
<clipPath id="clip0">
<rect width="50" height="50" fill="white"/>
</clipPath>
</defs>
</svg>
