<svg width="50" height="50" viewBox="0 0 50 50" fill="none" xmlns="http://www.w3.org/2000/svg">
<g clip-path="url(#clip0)">
<path d="M49.0605 17.3157L25.6212 7.15873C25.2248 6.98694 24.775 6.98694 24.3786 7.15873L0.939315 17.3157C-0.313121 17.8585 -0.313414 19.6405 0.939315 20.1832L9.37373 23.8381V33.5943C9.37373 38.8517 16.2375 42.97 24.9999 42.97C33.7623 42.97 40.6261 38.8517 40.6261 33.5943V23.8381L42.1887 23.161V39.8448C42.1887 40.7077 42.8883 41.4074 43.7513 41.4074C44.6142 41.4074 45.3139 40.7077 45.3139 39.8448V21.8068L49.0605 20.1833C50.3129 19.6406 50.3131 17.8586 49.0605 17.3157ZM24.9999 10.2955L44.5091 18.7495L42.9618 19.42L25.1937 17.1989C24.3372 17.0926 23.5563 17.6994 23.4493 18.5557C23.3422 19.412 23.9497 20.193 24.806 20.3L37.3208 21.8644L24.9999 27.2035C13.9779 22.4273 16.3254 23.4445 5.49073 18.7494L24.9999 10.2955ZM37.5008 33.5944C37.5008 35.0667 36.2924 36.5825 34.1854 37.753C29.1674 40.5408 20.847 40.549 15.8143 37.753C13.7074 36.5825 12.499 35.0667 12.499 33.5944V25.1925L24.3786 30.3403C24.7743 30.5118 25.224 30.5124 25.6212 30.3403L37.5008 25.1925V33.5944Z" fill="#F2F2F2"/>
</g>
<defs>
<clipPath id="clip0">
<rect width="50" height="50" fill="white"/>
</clipPath>
</defs>
</svg>
