<svg width="88" height="88" viewBox="0 0 88 88" fill="none" xmlns="http://www.w3.org/2000/svg">
<g clip-path="url(#clip0)">
<path d="M88 16.7145C84.7275 18.15 81.2405 19.1015 77.605 19.5635C81.345 17.3305 84.1995 13.8215 85.5415 9.592C82.0545 11.671 78.2045 13.1395 74.1015 13.959C70.7905 10.4335 66.0715 8.25 60.9235 8.25C50.9355 8.25 42.8945 16.357 42.8945 26.2955C42.8945 27.7255 43.0155 29.1005 43.3125 30.4095C28.314 29.678 15.0425 22.4895 6.127 11.539C4.5705 14.2395 3.6575 17.3305 3.6575 20.658C3.6575 26.906 6.875 32.4445 11.671 35.651C8.7725 35.596 5.929 34.7545 3.52 33.429C3.52 33.484 3.52 33.5555 3.52 33.627C3.52 42.394 9.7735 49.676 17.974 51.3535C16.5055 51.755 14.905 51.9475 13.244 51.9475C12.089 51.9475 10.923 51.8815 9.8285 51.6395C12.166 58.784 18.799 64.0365 26.686 64.207C20.548 69.0085 12.7545 71.9015 4.3175 71.9015C2.838 71.9015 1.419 71.8355 0 71.654C7.9915 76.8075 17.4625 79.75 27.676 79.75C60.874 79.75 79.024 52.25 79.024 28.413C79.024 27.6155 78.9965 26.8455 78.958 26.081C82.5385 23.54 85.547 20.3665 88 16.7145Z" fill="#0D0D0D"/>
</g>
<defs>
<clipPath id="clip0">
<rect width="88" height="88" fill="white"/>
</clipPath>
</defs>
</svg>
